<svg width="13" height="16" viewBox="0 0 13 16" fill="none" xmlns="http://www.w3.org/2000/svg">
<path fill-rule="evenodd" clip-rule="evenodd" d="M6.5 1.75C3.73858 1.75 1.5 3.98858 1.5 6.75C1.5 8.68629 2.75984 10.5652 4.14122 12.0233C4.81913 12.7389 5.49917 13.3247 6.01042 13.7318C6.2007 13.8833 6.36689 14.0095 6.5 14.1079C6.63311 14.0095 6.7993 13.8833 6.98958 13.7318C7.50083 13.3247 8.18087 12.7389 8.85878 12.0233C10.2402 10.5652 11.5 8.68629 11.5 6.75C11.5 3.98858 9.26142 1.75 6.5 1.75ZM6.5 14.875C6.15331 15.395 6.15315 15.3949 6.15297 15.3948L6.15119 15.3936L6.14702 15.3908L6.1327 15.3811C6.12053 15.3729 6.10317 15.361 6.08097 15.3456C6.03658 15.3149 5.97279 15.2701 5.89237 15.212C5.73159 15.0959 5.50398 14.9264 5.23176 14.7096C4.68833 14.2769 3.96212 13.6518 3.23378 12.883C1.80266 11.3723 0.25 9.18871 0.25 6.75C0.25 3.29822 3.04822 0.5 6.5 0.5C9.95178 0.5 12.75 3.29822 12.75 6.75C12.75 9.18871 11.1973 11.3723 9.76622 12.883C9.03788 13.6518 8.31167 14.2769 7.76824 14.7096C7.49602 14.9264 7.26841 15.0959 7.10763 15.212C7.02721 15.2701 6.96342 15.3149 6.91903 15.3456C6.89683 15.361 6.87947 15.3729 6.8673 15.3811L6.85298 15.3908L6.84881 15.3936L6.84749 15.3945C6.84731 15.3946 6.84669 15.395 6.5 14.875ZM6.5 14.875L6.84669 15.395C6.63675 15.535 6.36291 15.5348 6.15297 15.3948L6.5 14.875Z" fill="#112B42"/>
<path fill-rule="evenodd" clip-rule="evenodd" d="M4 6.75C4 5.36929 5.11929 4.25 6.5 4.25C7.88071 4.25 9 5.36929 9 6.75C9 8.13071 7.88071 9.25 6.5 9.25C5.11929 9.25 4 8.13071 4 6.75ZM6.5 5.5C5.80964 5.5 5.25 6.05964 5.25 6.75C5.25 7.44036 5.80964 8 6.5 8C7.19036 8 7.75 7.44036 7.75 6.75C7.75 6.05964 7.19036 5.5 6.5 5.5Z" fill="#112B42"/>
</svg>
