<svg width="162" height="30" viewBox="0 0 162 30" fill="none" xmlns="http://www.w3.org/2000/svg">
<path d="M15 30C23.2843 30 30 23.2843 30 15C30 6.71573 23.2843 0 15 0C6.71573 0 0 6.71573 0 15C0 23.2843 6.71573 30 15 30Z" fill="#0D7BDD"/>
<path d="M38.4 25.44C37.77 25.44 37.32 25.29 37.08 25.05C36.84 24.78 36.72 24.33 36.72 23.73V6.12C36.72 5.55 36.84 5.1 37.08 4.83C37.32 4.56 37.77 4.41 38.4 4.41L43.95 4.38C45.57 4.38 46.98 4.65 48.18 5.16C49.38 5.67 50.37 6.39 51.15 7.32C51.93 8.25 52.5 9.33 52.89 10.59C53.28 11.85 53.46 13.26 53.46 14.79C53.46 16.29 53.28 17.7 52.95 18.99C52.62 20.28 52.08 21.42 51.33 22.38C50.58 23.34 49.62 24.09 48.45 24.63C47.28 25.17 45.87 25.47 44.25 25.47H38.4V25.44ZM49.68 14.82C49.68 13.8 49.59 12.87 49.38 12C49.2 11.13 48.87 10.38 48.39 9.72001C47.94 9.06 47.31 8.55 46.53 8.19C45.75 7.83 44.79 7.65 43.62 7.65H40.38V22.14H43.71C44.88 22.14 45.84 21.96 46.59 21.6C47.34 21.24 47.94 20.73 48.39 20.07C48.84 19.41 49.17 18.66 49.35 17.76C49.59 16.86 49.68 15.87 49.68 14.82Z" fill="#112B42"/>
<path d="M70.14 17.49C70.14 20.16 69.54 22.2 68.31 23.64C67.08 25.08 65.25 25.77 62.79 25.77C60.36 25.77 58.56 25.08 57.39 23.7C56.19 22.32 55.59 20.28 55.59 17.58C55.59 16.26 55.77 15.09 56.13 14.07C56.49 13.05 57 12.18 57.63 11.49C58.26 10.8 59.04 10.26 59.94 9.86999C60.84 9.50999 61.83 9.29999 62.88 9.29999C65.25 9.29999 67.08 10.02 68.31 11.49C69.54 12.93 70.14 14.94 70.14 17.49ZM66.57 17.55C66.57 16.83 66.51 16.14 66.39 15.51C66.27 14.88 66.09 14.31 65.82 13.8C65.55 13.32 65.19 12.93 64.71 12.63C64.23 12.36 63.63 12.21 62.91 12.21C62.28 12.21 61.71 12.36 61.23 12.63C60.75 12.9 60.36 13.26 60.03 13.74C59.7 14.19 59.46 14.76 59.31 15.39C59.16 16.02 59.07 16.74 59.07 17.46C59.07 19.14 59.34 20.43 59.88 21.39C60.42 22.35 61.38 22.83 62.76 22.83C63.45 22.83 64.05 22.68 64.53 22.38C65.01 22.08 65.4 21.69 65.7 21.21C66 20.73 66.21 20.16 66.33 19.53C66.51 18.93 66.57 18.27 66.57 17.55Z" fill="#112B42"/>
<path d="M75.96 25.35C75.87 25.41 75.72 25.44 75.51 25.44H73.17C72.96 25.44 72.84 25.41 72.75 25.35C72.66 25.29 72.6 25.14 72.6 24.93V12.15C72.6 11.79 72.63 11.46 72.69 11.19C72.75 10.92 72.84 10.65 72.99 10.44C73.14 10.23 73.32 10.05 73.59 9.89996C73.86 9.74996 74.19 9.62996 74.64 9.53996C74.79 9.50996 75 9.47996 75.3 9.44996C75.6 9.41996 75.93 9.38996 76.29 9.35996C76.65 9.32996 76.98 9.32996 77.34 9.29996C77.67 9.26996 77.97 9.26996 78.21 9.26996C79.44 9.26996 80.46 9.38996 81.33 9.62996C82.2 9.86996 82.95 10.26 83.61 10.77C84.3 10.32 85.14 9.92996 86.1 9.68996C87.06 9.44996 88.08 9.26996 89.16 9.26996C90.39 9.26996 91.47 9.44996 92.34 9.80996C93.21 10.17 93.93 10.68 94.5 11.31C95.04 11.94 95.46 12.72 95.73 13.65C96 14.55 96.12 15.57 96.12 16.62V24.9C96.12 25.11 96.06 25.26 96 25.32C95.91 25.38 95.76 25.41 95.52 25.41H93.21C93 25.41 92.85 25.38 92.76 25.32C92.67 25.26 92.64 25.11 92.64 24.9V17.1C92.64 15.48 92.34 14.28 91.77 13.5C91.2 12.72 90.18 12.33 88.74 12.33C88.23 12.33 87.63 12.39 87 12.51C86.37 12.63 85.83 12.81 85.44 13.05C85.68 13.62 85.83 14.22 85.92 14.85C86.01 15.48 86.04 16.2 86.04 16.95V24.9C86.04 25.11 85.98 25.26 85.92 25.32C85.86 25.38 85.68 25.41 85.47 25.41H83.16C82.95 25.41 82.83 25.38 82.74 25.32C82.65 25.26 82.62 25.11 82.62 24.9V16.89C82.62 16.2 82.56 15.57 82.44 15C82.32 14.43 82.14 13.95 81.84 13.56C81.54 13.17 81.15 12.84 80.61 12.63C80.07 12.42 79.41 12.3 78.57 12.3C78.45 12.3 78.3 12.3 78.09 12.33C77.88 12.33 77.67 12.36 77.46 12.36C77.25 12.36 77.01 12.39 76.83 12.42C76.62 12.45 76.44 12.48 76.29 12.51V24.9C76.08 25.14 76.05 25.29 75.96 25.35Z" fill="#112B42"/>
<path d="M113.55 17.49C113.55 20.16 112.95 22.2 111.69 23.64C110.46 25.08 108.63 25.77 106.2 25.77C103.77 25.77 101.97 25.08 100.8 23.7C99.6 22.32 99 20.28 99 17.58C99 16.26 99.18 15.09 99.54 14.07C99.9 13.05 100.41 12.18 101.04 11.49C101.67 10.8 102.45 10.26 103.35 9.86999C104.25 9.50999 105.24 9.29999 106.29 9.29999C108.66 9.29999 110.49 10.02 111.69 11.49C112.95 12.93 113.55 14.94 113.55 17.49ZM109.98 17.55C109.98 16.83 109.92 16.14 109.83 15.51C109.71 14.88 109.53 14.31 109.26 13.8C108.99 13.32 108.63 12.93 108.15 12.63C107.67 12.36 107.1 12.21 106.35 12.21C105.72 12.21 105.15 12.36 104.67 12.63C104.19 12.9 103.8 13.26 103.47 13.74C103.14 14.19 102.9 14.76 102.75 15.39C102.6 16.02 102.51 16.74 102.51 17.46C102.51 19.14 102.78 20.43 103.32 21.39C103.86 22.35 104.82 22.83 106.2 22.83C106.89 22.83 107.49 22.68 107.97 22.38C108.45 22.08 108.84 21.69 109.11 21.21C109.41 20.73 109.62 20.16 109.74 19.53C109.92 18.93 109.98 18.27 109.98 17.55Z" fill="#112B42"/>
<path d="M124.26 24.09C124.05 24.66 123.84 25.05 123.57 25.26C123.33 25.47 122.94 25.56 122.4 25.56H120.72C120.27 25.56 119.91 25.47 119.67 25.32C119.4 25.14 119.16 24.75 118.92 24.09L114.06 10.08C113.97 9.80997 114.09 9.65997 114.39 9.65997H117.09C117.3 9.65997 117.45 9.68997 117.54 9.74997C117.63 9.80997 117.69 9.89997 117.72 10.05L120.03 17.16L121.5 22.26H121.68L123.15 17.19L125.37 10.08C125.4 9.92997 125.46 9.80997 125.52 9.74997C125.58 9.68997 125.73 9.65997 125.97 9.65997H128.61C128.91 9.65997 129 9.77997 128.91 10.05L124.26 24.09Z" fill="#112B42"/>
<path d="M134.85 5.55001C134.85 6.15001 134.64 6.66001 134.22 7.08001C133.8 7.50001 133.29 7.71001 132.69 7.71001C132.09 7.71001 131.58 7.50001 131.16 7.08001C130.74 6.66001 130.53 6.15001 130.53 5.55001C130.53 4.95001 130.74 4.44001 131.16 4.02001C131.58 3.60001 132.09 3.39001 132.69 3.39001C133.29 3.39001 133.8 3.60001 134.22 4.02001C134.64 4.47001 134.85 4.95001 134.85 5.55001ZM134.4 24.9C134.4 25.11 134.37 25.26 134.28 25.32C134.19 25.38 134.04 25.41 133.8 25.41H131.49C131.28 25.41 131.13 25.38 131.04 25.32C130.95 25.26 130.89 25.11 130.89 24.9V10.2C130.89 9.99002 130.95 9.84001 131.04 9.78001C131.13 9.72001 131.28 9.69001 131.49 9.69001H133.8C134.01 9.69001 134.19 9.72001 134.28 9.78001C134.37 9.84001 134.4 9.99002 134.4 10.2V24.9Z" fill="#112B42"/>
<path d="M147.39 25.05C147.39 25.14 147.3 25.23 147.09 25.2901C146.4 25.5 145.74 25.65 145.05 25.68C144.36 25.71 143.85 25.74 143.46 25.74C141.81 25.74 140.67 25.3801 139.98 24.6901C139.29 24 138.96 22.92 138.96 21.48V12.33H136.83C136.62 12.33 136.47 12.3 136.44 12.21C136.38 12.12 136.35 12 136.35 11.82V10.59C136.35 10.41 136.38 10.29 136.44 10.2C136.5 10.11 136.62 10.05 136.83 10.02L139.11 9.51005L139.5 6.66005C139.53 6.45005 139.59 6.30005 139.71 6.21005C139.8 6.12005 139.95 6.06005 140.16 5.97005L141.9 5.37005C142.05 5.34005 142.2 5.34005 142.29 5.40005C142.38 5.46005 142.44 5.61005 142.44 5.82005V9.63005H145.65C145.86 9.63005 146.01 9.66005 146.04 9.78005C146.1 9.87005 146.13 9.99005 146.13 10.11V11.79C146.13 11.97 146.1 12.09 146.04 12.18C145.98 12.27 145.86 12.3 145.65 12.3H142.44V21C142.44 21.63 142.59 22.08 142.89 22.32C143.19 22.56 143.64 22.68 144.27 22.68C144.39 22.68 144.54 22.68 144.75 22.68C144.96 22.68 145.14 22.65 145.35 22.62C145.56 22.59 145.77 22.59 145.98 22.53C146.19 22.5 146.37 22.47 146.52 22.4401C146.73 22.41 146.85 22.41 146.91 22.4401C146.97 22.5 147 22.59 147.03 22.74L147.36 24.66C147.39 24.84 147.39 24.96 147.39 25.05Z" fill="#112B42"/>
<path d="M161.88 23.7C161.88 24.18 161.7 24.51 161.31 24.69C160.86 24.9 160.41 25.05 159.87 25.2C159.36 25.35 158.82 25.44 158.28 25.53C157.74 25.62 157.2 25.65 156.69 25.68C156.15 25.71 155.64 25.71 155.19 25.71C153.87 25.71 152.76 25.59 151.89 25.32C151.02 25.05 150.33 24.69 149.82 24.24C149.31 23.79 148.95 23.25 148.77 22.65C148.56 22.05 148.47 21.39 148.47 20.73C148.47 20.04 148.59 19.35 148.83 18.69C149.07 18.03 149.43 17.46 149.97 16.98C150.48 16.5 151.17 16.08 152.01 15.78C152.85 15.48 153.84 15.33 155.04 15.33H158.4V14.82C158.4 14.43 158.37 14.1 158.28 13.77C158.19 13.44 158.04 13.17 157.83 12.93C157.59 12.69 157.29 12.51 156.9 12.36C156.51 12.24 155.97 12.18 155.34 12.18C154.65 12.18 153.93 12.24 153.12 12.36C152.31 12.48 151.68 12.63 151.17 12.78C150.96 12.84 150.78 12.84 150.69 12.81C150.6 12.78 150.51 12.66 150.48 12.48L150 10.8C149.91 10.47 150 10.26 150.27 10.17C151.11 9.83996 152.04 9.62996 153.03 9.47996C154.02 9.35996 154.98 9.26996 155.85 9.26996C157.92 9.26996 159.45 9.71996 160.44 10.65C161.4 11.58 161.91 12.9 161.91 14.67V23.7H161.88ZM158.34 18.06H155.46C155.13 18.06 154.77 18.09 154.38 18.12C153.99 18.15 153.63 18.27 153.27 18.45C152.91 18.63 152.64 18.9 152.4 19.23C152.16 19.56 152.07 20.04 152.07 20.64C152.07 21.51 152.37 22.11 152.94 22.44C153.51 22.77 154.29 22.95 155.25 22.95C155.4 22.95 155.58 22.95 155.85 22.95C156.09 22.95 156.36 22.92 156.63 22.86C156.9 22.83 157.2 22.77 157.53 22.71C157.83 22.65 158.13 22.56 158.4 22.47V18.06H158.34Z" fill="#112B42"/>
</svg>
