<svg width="20" height="22" viewBox="0 0 20 22" fill="none" xmlns="http://www.w3.org/2000/svg">
<path fill-rule="evenodd" clip-rule="evenodd" d="M11.2929 0.292893C11.6834 -0.0976311 12.3166 -0.0976311 12.7071 0.292893L16.7071 4.29289C17.0976 4.68342 17.0976 5.31658 16.7071 5.70711L5.70711 16.7071C5.51957 16.8946 5.26522 17 5 17H1C0.447715 17 0 16.5523 0 16V12C0 11.7348 0.105357 11.4804 0.292893 11.2929L11.2929 0.292893ZM2 12.4142V15H4.58579L14.5858 5L12 2.41421L2 12.4142Z" fill="#90979C"/>
<path fill-rule="evenodd" clip-rule="evenodd" d="M0 21C0 20.4477 0.447715 20 1 20H19C19.5523 20 20 20.4477 20 21C20 21.5523 19.5523 22 19 22H1C0.447715 22 0 21.5523 0 21Z" fill="#90979C"/>
</svg>
