<svg width="20" height="20" viewBox="0 0 20 20" fill="none" xmlns="http://www.w3.org/2000/svg">
<path fill-rule="evenodd" clip-rule="evenodd" d="M5.93273 3.21352C5.87285 2.80092 5.51707 2.49585 5.09984 2.49996L5.09164 2.5H2.59208C2.35829 2.50032 2.13537 2.59883 1.97774 2.77151C1.82127 2.94292 1.74343 3.17175 1.76278 3.40286C2.0234 5.84583 2.85523 8.19323 4.19104 10.2553L4.19498 10.2614C5.40882 12.1716 7.02835 13.7912 8.93857 15.005L8.94506 15.0091C10.9974 16.3401 13.333 17.1717 15.7646 17.4373C15.9962 17.4564 16.2253 17.378 16.3967 17.2208C16.5696 17.0622 16.6676 16.838 16.6666 16.6034L16.6666 16.6V14.1C16.6666 14.0931 16.6667 14.0862 16.6669 14.0793C16.6774 13.6573 16.3707 13.2943 15.9532 13.2339C15.0924 13.12 14.2472 12.9093 13.4336 12.6057L13.4318 12.605C13.1278 12.4908 12.7853 12.5635 12.554 12.7912L11.4976 13.8476C11.2323 14.1129 10.8225 14.1682 10.4964 13.9827C8.27971 12.7223 6.44433 10.8869 5.18389 8.67025C4.99847 8.34414 5.05379 7.93434 5.31905 7.66908L6.37544 6.61269C6.60314 6.38137 6.67584 6.03882 6.5616 5.73489L6.56089 5.73301C6.25733 4.9195 6.04661 4.07431 5.93273 3.21352ZM5.08794 0.833335C6.34083 0.823226 7.40802 1.74232 7.58344 2.98337L7.58449 2.99104C7.68175 3.72847 7.86208 4.45255 8.12206 5.14946C8.46494 6.0628 8.2452 7.09221 7.55918 7.78595L7.5559 7.78927L6.95832 8.38683C7.9382 9.92404 9.2426 11.2284 10.7798 12.2083L11.3807 11.6074C12.0744 10.9214 13.1038 10.7017 14.0172 11.0446C14.7141 11.3046 15.4382 11.4849 16.1756 11.5822L16.1831 11.5832C17.4363 11.76 18.359 12.8452 18.3333 14.1093V16.5983C18.3357 17.3016 18.0417 17.9735 17.5234 18.4489C17.0047 18.9248 16.3094 19.16 15.6083 19.0966C15.6033 19.0962 15.5983 19.0957 15.5933 19.0951C12.9007 18.8026 10.3142 17.8828 8.04143 16.4096C5.92715 15.0654 4.13439 13.2726 2.79024 11.1583C1.3119 8.87523 0.391861 6.2761 0.104633 3.57133L0.103355 3.55833C0.040197 2.85943 0.273695 2.16615 0.746813 1.64786C1.21993 1.12957 1.8891 0.833996 2.59086 0.833335L5.08794 0.833335Z" fill="#90979C"/>
</svg>
