<svg width="48" height="48" viewBox="0 0 48 48" fill="none" xmlns="http://www.w3.org/2000/svg">
<circle cx="24" cy="24" r="24" fill="#E4E5E7"/>
<path fill-rule="evenodd" clip-rule="evenodd" d="M15 31C15 28.2386 17.2386 26 20 26H28C30.7614 26 33 28.2386 33 31V33C33 33.5523 32.5523 34 32 34C31.4477 34 31 33.5523 31 33V31C31 29.3431 29.6569 28 28 28H20C18.3431 28 17 29.3431 17 31V33C17 33.5523 16.5523 34 16 34C15.4477 34 15 33.5523 15 33V31Z" fill="#90979C"/>
<path fill-rule="evenodd" clip-rule="evenodd" d="M19 19C19 16.2386 21.2386 14 24 14C26.7614 14 29 16.2386 29 19C29 21.7614 26.7614 24 24 24C21.2386 24 19 21.7614 19 19ZM24 16C22.3431 16 21 17.3431 21 19C21 20.6569 22.3431 22 24 22C25.6569 22 27 20.6569 27 19C27 17.3431 25.6569 16 24 16Z" fill="#90979C"/>
</svg>
