<svg width="40" height="40" viewBox="0 0 40 40" fill="none" xmlns="http://www.w3.org/2000/svg">
<circle cx="20" cy="20" r="20" fill="#4F7EB3"/>
<path fill-rule="evenodd" clip-rule="evenodd" d="M27.2129 21.2442C27.8763 21.8962 28.5765 22.5097 29.1715 23.2274C29.4344 23.5464 29.6832 23.8755 29.8736 24.2457C30.1433 24.7719 29.899 25.3509 29.4303 25.3824L26.5166 25.381C25.7652 25.4438 25.1657 25.1393 24.6616 24.6221C24.2582 24.2085 23.8846 23.7683 23.4967 23.3407C23.3377 23.1659 23.1713 23.0015 22.9724 22.8715C22.5747 22.6116 22.2294 22.6912 22.0021 23.1088C21.7706 23.5335 21.7181 24.0038 21.6954 24.4772C21.6642 25.1678 21.4568 25.3494 20.7676 25.381C19.2947 25.4509 17.8969 25.2266 16.5984 24.4787C15.4536 23.8193 14.5658 22.8885 13.7931 21.8347C12.2886 19.7828 11.1365 17.5281 10.101 15.2102C9.86793 14.6879 10.0384 14.4076 10.6108 14.3977C11.5613 14.3791 12.5117 14.3804 13.4633 14.3964C13.8497 14.402 14.1054 14.6251 14.2546 14.9925C14.7688 16.2653 15.3981 17.4763 16.1879 18.5988C16.3983 18.8977 16.6128 19.1965 16.9182 19.4069C17.2561 19.6398 17.5133 19.5626 17.6723 19.1837C17.7732 18.9435 17.8173 18.6847 17.8401 18.4274C17.9154 17.5421 17.9253 16.6584 17.7932 15.7763C17.7121 15.2258 17.4041 14.8694 16.8583 14.7652C16.5798 14.7121 16.6213 14.6078 16.7562 14.4477C16.9903 14.1718 17.2106 14 17.6497 14H20.9426C21.461 14.103 21.5761 14.3374 21.6471 14.8625L21.6499 18.5444C21.6442 18.7477 21.7508 19.3509 22.1145 19.4854C22.4056 19.5812 22.5975 19.3468 22.7721 19.161C23.5605 18.3186 24.1232 17.3232 24.6259 16.2924C24.849 15.8392 25.0408 15.3685 25.2267 14.8982C25.3644 14.5492 25.5806 14.3775 25.9711 14.3851L29.1403 14.3879C29.2343 14.3879 29.3294 14.3893 29.4204 14.405C29.9544 14.4966 30.1007 14.7279 29.9358 15.2528C29.6759 16.0764 29.1703 16.7627 28.6759 17.4523C28.1473 18.1884 27.5821 18.8993 27.058 19.6399C26.5764 20.3161 26.6147 20.6569 27.2129 21.2442Z" fill="white"/>
</svg>
