<svg width="40" height="40" viewBox="0 0 40 40" fill="none" xmlns="http://www.w3.org/2000/svg">
<circle cx="20" cy="20" r="20" fill="#1B9DEB"/>
<path d="M30 13.9629C29.2639 14.296 28.4741 14.5219 27.6442 14.6227C28.4915 14.1046 29.1402 13.2827 29.4476 12.3063C28.6527 12.7862 27.7754 13.1346 26.8406 13.3235C26.092 12.508 25.0271 12 23.8461 12C21.5803 12 19.7431 13.8761 19.7431 16.1887C19.7431 16.5167 19.7794 16.8371 19.8494 17.1434C16.44 16.9685 13.4168 15.3004 11.3935 12.7657C11.0398 13.3835 10.8386 14.1033 10.8386 14.8716C10.8386 16.3253 11.5634 17.6079 12.6632 18.3584C11.9909 18.3354 11.3585 18.1465 10.8048 17.8325V17.8849C10.8048 19.9141 12.2196 21.6078 14.0955 21.9932C13.7518 22.0877 13.3894 22.14 13.0144 22.14C12.7495 22.14 12.4933 22.1132 12.2421 22.0621C12.7644 23.7277 14.2792 24.9388 16.0739 24.972C14.6704 26.0952 12.9007 26.7627 10.9786 26.7627C10.6474 26.7627 10.3212 26.7422 10 26.7052C11.8159 27.896 13.9718 28.5903 16.2888 28.5903C23.8362 28.5903 27.9617 22.2064 27.9617 16.6699L27.9479 16.1275C28.754 15.5404 29.4513 14.8027 30 13.9629Z" fill="white"/>
</svg>
