<svg width="20" height="20" viewBox="0 0 20 20" fill="none" xmlns="http://www.w3.org/2000/svg">
<path fill-rule="evenodd" clip-rule="evenodd" d="M2.5 15.8333C2.5 13.5322 4.36548 11.6667 6.66667 11.6667H13.3333C15.6345 11.6667 17.5 13.5322 17.5 15.8333V17.5C17.5 17.9602 17.1269 18.3333 16.6667 18.3333C16.2064 18.3333 15.8333 17.9602 15.8333 17.5V15.8333C15.8333 14.4526 14.714 13.3333 13.3333 13.3333H6.66667C5.28595 13.3333 4.16667 14.4526 4.16667 15.8333V17.5C4.16667 17.9602 3.79357 18.3333 3.33333 18.3333C2.8731 18.3333 2.5 17.9602 2.5 17.5V15.8333Z" fill="#90979C"/>
<path fill-rule="evenodd" clip-rule="evenodd" d="M5.83333 5.83334C5.83333 3.53215 7.69881 1.66667 10 1.66667C12.3012 1.66667 14.1667 3.53215 14.1667 5.83334C14.1667 8.13453 12.3012 10 10 10C7.69881 10 5.83333 8.13453 5.83333 5.83334ZM10 3.33334C8.61929 3.33334 7.5 4.45263 7.5 5.83334C7.5 7.21405 8.61929 8.33334 10 8.33334C11.3807 8.33334 12.5 7.21405 12.5 5.83334C12.5 4.45263 11.3807 3.33334 10 3.33334Z" fill="#90979C"/>
</svg>
